<?xml version="1.0" encoding="UTF-8"?>
<svg xmlns="http://www.w3.org/2000/svg" width="3.75in" height="2.25in" viewBox="0 0 1125 675">
<title>Chaotick business card - back</title>
<!-- 3.5 x 2 in business card with 0.125 in bleed on all sides. Trim 37.5 units in from each edge. -->
<rect width="1125" height="675" fill="#F6F1E7"/>
<rect x="412.50" y="128.00" width="300" height="300" rx="36.0" fill="#FFFCF6" stroke="#DDD3C2" stroke-width="3"/>
<path fill="#1F1B2E" shape-rendering="crispEdges" d="M441.53 157.03h67.74v9.68h-67.74zM518.95 157.03h9.68v9.68h-9.68zM567.34 157.03h19.35v9.68h-19.35zM615.73 157.03h67.74v9.68h-67.74zM441.53 166.71h9.68v9.68h-9.68zM499.60 166.71h9.68v9.68h-9.68zM518.95 166.71h9.68v9.68h-9.68zM538.31 166.71h9.68v9.68h-9.68zM567.34 166.71h19.35v9.68h-19.35zM615.73 166.71h9.68v9.68h-9.68zM673.79 166.71h9.68v9.68h-9.68zM441.53 176.39h9.68v9.68h-9.68zM460.89 176.39h29.03v9.68h-29.03zM499.60 176.39h9.68v9.68h-9.68zM547.98 176.39h19.35v9.68h-19.35zM577.02 176.39h9.68v9.68h-9.68zM596.37 176.39h9.68v9.68h-9.68zM615.73 176.39h9.68v9.68h-9.68zM635.08 176.39h29.03v9.68h-29.03zM673.79 176.39h9.68v9.68h-9.68zM441.53 186.06h9.68v9.68h-9.68zM460.89 186.06h29.03v9.68h-29.03zM499.60 186.06h9.68v9.68h-9.68zM528.63 186.06h9.68v9.68h-9.68zM547.98 186.06h29.03v9.68h-29.03zM586.69 186.06h19.35v9.68h-19.35zM615.73 186.06h9.68v9.68h-9.68zM635.08 186.06h29.03v9.68h-29.03zM673.79 186.06h9.68v9.68h-9.68zM441.53 195.74h9.68v9.68h-9.68zM460.89 195.74h29.03v9.68h-29.03zM499.60 195.74h9.68v9.68h-9.68zM528.63 195.74h9.68v9.68h-9.68zM557.66 195.74h9.68v9.68h-9.68zM615.73 195.74h9.68v9.68h-9.68zM635.08 195.74h29.03v9.68h-29.03zM673.79 195.74h9.68v9.68h-9.68zM441.53 205.42h9.68v9.68h-9.68zM499.60 205.42h9.68v9.68h-9.68zM528.63 205.42h19.35v9.68h-19.35zM567.34 205.42h19.35v9.68h-19.35zM596.37 205.42h9.68v9.68h-9.68zM615.73 205.42h9.68v9.68h-9.68zM673.79 205.42h9.68v9.68h-9.68zM441.53 215.10h67.74v9.68h-67.74zM518.95 215.10h9.68v9.68h-9.68zM538.31 215.10h9.68v9.68h-9.68zM557.66 215.10h9.68v9.68h-9.68zM577.02 215.10h9.68v9.68h-9.68zM596.37 215.10h9.68v9.68h-9.68zM615.73 215.10h67.74v9.68h-67.74zM528.63 224.77h9.68v9.68h-9.68zM547.98 224.77h19.35v9.68h-19.35zM577.02 224.77h19.35v9.68h-19.35zM451.21 234.45h9.68v9.68h-9.68zM499.60 234.45h58.06v9.68h-58.06zM606.05 234.45h9.68v9.68h-9.68zM664.11 234.45h19.35v9.68h-19.35zM480.24 244.13h9.68v9.68h-9.68zM509.27 244.13h9.68v9.68h-9.68zM528.63 244.13h9.68v9.68h-9.68zM557.66 244.13h9.68v9.68h-9.68zM577.02 244.13h19.35v9.68h-19.35zM625.40 244.13h48.39v9.68h-48.39zM460.89 253.81h9.68v9.68h-9.68zM489.92 253.81h29.03v9.68h-29.03zM528.63 253.81h9.68v9.68h-9.68zM547.98 253.81h9.68v9.68h-9.68zM586.69 253.81h19.35v9.68h-19.35zM625.40 253.81h29.03v9.68h-29.03zM664.11 253.81h19.35v9.68h-19.35zM441.53 263.48h38.71v9.68h-38.71zM489.92 263.48h9.68v9.68h-9.68zM509.27 263.48h9.68v9.68h-9.68zM547.98 263.48h9.68v9.68h-9.68zM586.69 263.48h9.68v9.68h-9.68zM615.73 263.48h9.68v9.68h-9.68zM644.76 263.48h9.68v9.68h-9.68zM673.79 263.48h9.68v9.68h-9.68zM480.24 273.16h29.03v9.68h-29.03zM557.66 273.16h48.39v9.68h-48.39zM615.73 273.16h19.35v9.68h-19.35zM673.79 273.16h9.68v9.68h-9.68zM441.53 282.84h9.68v9.68h-9.68zM460.89 282.84h38.71v9.68h-38.71zM538.31 282.84h19.35v9.68h-19.35zM586.69 282.84h19.35v9.68h-19.35zM625.40 282.84h9.68v9.68h-9.68zM664.11 282.84h9.68v9.68h-9.68zM441.53 292.52h9.68v9.68h-9.68zM470.56 292.52h19.35v9.68h-19.35zM499.60 292.52h9.68v9.68h-9.68zM528.63 292.52h9.68v9.68h-9.68zM547.98 292.52h19.35v9.68h-19.35zM577.02 292.52h29.03v9.68h-29.03zM615.73 292.52h38.71v9.68h-38.71zM664.11 292.52h19.35v9.68h-19.35zM441.53 302.19h9.68v9.68h-9.68zM460.89 302.19h19.35v9.68h-19.35zM518.95 302.19h9.68v9.68h-9.68zM567.34 302.19h9.68v9.68h-9.68zM596.37 302.19h38.71v9.68h-38.71zM644.76 302.19h19.35v9.68h-19.35zM673.79 302.19h9.68v9.68h-9.68zM441.53 311.87h9.68v9.68h-9.68zM489.92 311.87h29.03v9.68h-29.03zM538.31 311.87h48.39v9.68h-48.39zM596.37 311.87h48.39v9.68h-48.39zM654.44 311.87h9.68v9.68h-9.68zM518.95 321.55h9.68v9.68h-9.68zM547.98 321.55h9.68v9.68h-9.68zM567.34 321.55h9.68v9.68h-9.68zM596.37 321.55h9.68v9.68h-9.68zM635.08 321.55h9.68v9.68h-9.68zM441.53 331.23h67.74v9.68h-67.74zM518.95 331.23h19.35v9.68h-19.35zM557.66 331.23h9.68v9.68h-9.68zM577.02 331.23h9.68v9.68h-9.68zM596.37 331.23h9.68v9.68h-9.68zM615.73 331.23h9.68v9.68h-9.68zM635.08 331.23h9.68v9.68h-9.68zM673.79 331.23h9.68v9.68h-9.68zM441.53 340.90h9.68v9.68h-9.68zM499.60 340.90h9.68v9.68h-9.68zM528.63 340.90h29.03v9.68h-29.03zM567.34 340.90h38.71v9.68h-38.71zM635.08 340.90h9.68v9.68h-9.68zM664.11 340.90h9.68v9.68h-9.68zM441.53 350.58h9.68v9.68h-9.68zM460.89 350.58h29.03v9.68h-29.03zM499.60 350.58h9.68v9.68h-9.68zM557.66 350.58h9.68v9.68h-9.68zM577.02 350.58h67.74v9.68h-67.74zM654.44 350.58h9.68v9.68h-9.68zM673.79 350.58h9.68v9.68h-9.68zM441.53 360.26h9.68v9.68h-9.68zM460.89 360.26h29.03v9.68h-29.03zM499.60 360.26h9.68v9.68h-9.68zM528.63 360.26h9.68v9.68h-9.68zM547.98 360.26h9.68v9.68h-9.68zM577.02 360.26h9.68v9.68h-9.68zM596.37 360.26h29.03v9.68h-29.03zM664.11 360.26h19.35v9.68h-19.35zM441.53 369.94h9.68v9.68h-9.68zM460.89 369.94h29.03v9.68h-29.03zM499.60 369.94h9.68v9.68h-9.68zM528.63 369.94h19.35v9.68h-19.35zM567.34 369.94h9.68v9.68h-9.68zM644.76 369.94h19.35v9.68h-19.35zM673.79 369.94h9.68v9.68h-9.68zM441.53 379.61h9.68v9.68h-9.68zM499.60 379.61h9.68v9.68h-9.68zM518.95 379.61h9.68v9.68h-9.68zM538.31 379.61h19.35v9.68h-19.35zM567.34 379.61h9.68v9.68h-9.68zM586.69 379.61h29.03v9.68h-29.03zM625.40 379.61h19.35v9.68h-19.35zM673.79 379.61h9.68v9.68h-9.68zM441.53 389.29h67.74v9.68h-67.74zM538.31 389.29h29.03v9.68h-29.03zM596.37 389.29h9.68v9.68h-9.68zM644.76 389.29h9.68v9.68h-9.68zM673.79 389.29h9.68v9.68h-9.68z"/>
<path fill="#B83A17" d="M374.63749999999993 498.25Q372.23749999999995 498.25 370.62499999999994 497.55Q369.01249999999993 496.85 368.18749999999994 495.725Q367.36249999999995 494.6 367.31249999999994 493.325Q367.31249999999994 493.125 367.4625 492.9625Q367.61249999999995 492.8 367.8375 492.8H370.51249999999993Q370.8375 492.8 371.01249999999993 492.9375Q371.18749999999994 493.075 371.3375 493.275Q371.51249999999993 493.7 371.9 494.1Q372.28749999999997 494.5 372.9625 494.7625Q373.63749999999993 495.025 374.63749999999993 495.025Q376.26249999999993 495.025 377.07499999999993 494.5Q377.88749999999993 493.975 377.88749999999993 493.075Q377.88749999999993 492.425 377.44999999999993 492.025Q377.01249999999993 491.625 376.07499999999993 491.3Q375.13749999999993 490.975 373.5875 490.6Q371.7125 490.2 370.4 489.5625Q369.0875 488.925 368.42499999999995 487.9125Q367.76249999999993 486.9 367.76249999999993 485.4Q367.76249999999993 483.9 368.5875 482.73749999999995Q369.41249999999997 481.575 370.91249999999997 480.9125Q372.41249999999997 480.25 374.48749999999995 480.25Q376.16249999999997 480.25 377.44999999999993 480.7Q378.73749999999995 481.15 379.59999999999997 481.875Q380.4625 482.6 380.91249999999997 483.425Q381.36249999999995 484.25 381.38749999999993 485.025Q381.38749999999993 485.225 381.23749999999995 485.38750000000005Q381.0875 485.55 380.86249999999995 485.55H378.06249999999994Q377.81249999999994 485.55 377.61249999999995 485.45000000000005Q377.41249999999997 485.35 377.28749999999997 485.1Q377.13749999999993 484.45 376.4 483.9625Q375.66249999999997 483.475 374.48749999999995 483.475Q373.26249999999993 483.475 372.54999999999995 483.925Q371.8375 484.375 371.8375 485.3Q371.8375 485.9 372.19999999999993 486.3125Q372.56249999999994 486.725 373.42499999999995 487.0375Q374.28749999999997 487.35 375.7125 487.725Q377.91249999999997 488.175 379.28749999999997 488.8Q380.66249999999997 489.425 381.3125 490.4125Q381.9625 491.4 381.9625 492.9Q381.9625 494.575 381.025 495.775Q380.0875 496.975 378.44999999999993 497.6125Q376.81249999999994 498.25 374.63749999999993 498.25ZM394.5875 498.25Q392.23749999999995 498.25 390.59999999999997 497.4625Q388.9625 496.675 388.0625 495.1625Q387.16249999999997 493.65 387.06249999999994 491.475Q387.03749999999997 490.45 387.03749999999997 489.275Q387.03749999999997 488.1 387.06249999999994 487.025Q387.16249999999997 484.875 388.07499999999993 483.3625Q388.98749999999995 481.85 390.63749999999993 481.05Q392.28749999999997 480.25 394.5875 480.25Q396.2625 480.25 397.6375 480.675Q399.0125 481.1 400.0125 481.9Q401.0125 482.7 401.5625 483.775Q402.11249999999995 484.85 402.16249999999997 486.175Q402.16249999999997 486.4 402.0 486.54999999999995Q401.8375 486.7 401.61249999999995 486.7H398.7625Q398.4625 486.7 398.28749999999997 486.54999999999995Q398.11249999999995 486.4 398.0125 486.05Q397.6375 484.575 396.7625 484.025Q395.8875 483.475 394.5875 483.475Q393.03749999999997 483.475 392.13749999999993 484.32500000000005Q391.23749999999995 485.175 391.16249999999997 487.15Q391.0875 489.2 391.16249999999997 491.35Q391.23749999999995 493.325 392.13749999999993 494.17499999999995Q393.03749999999997 495.025 394.5875 495.025Q395.8875 495.025 396.775 494.4625Q397.66249999999997 493.9 398.0125 492.45Q398.11249999999995 492.075 398.28749999999997 491.9375Q398.4625 491.8 398.7625 491.8H401.61249999999995Q401.8375 491.8 402.0 491.95000000000005Q402.16249999999997 492.1 402.16249999999997 492.325Q402.11249999999995 493.65 401.5625 494.725Q401.0125 495.8 400.0125 496.6Q399.0125 497.4 397.6375 497.825Q396.2625 498.25 394.5875 498.25ZM406.93749999999994 498.0Q406.7125 498.0 406.5625 497.8375Q406.41249999999997 497.675 406.41249999999997 497.475Q406.41249999999997 497.35 406.43749999999994 497.25L412.38749999999993 481.175Q412.4625 480.9 412.6875 480.7Q412.91249999999997 480.5 413.31249999999994 480.5H416.51249999999993Q416.91249999999997 480.5 417.13749999999993 480.7Q417.36249999999995 480.9 417.43749999999994 481.175L423.38749999999993 497.25Q423.41249999999997 497.35 423.41249999999997 497.475Q423.41249999999997 497.675 423.26249999999993 497.8375Q423.11249999999995 498.0 422.88749999999993 498.0H420.28749999999997Q419.91249999999997 498.0 419.73749999999995 497.825Q419.56249999999994 497.65 419.51249999999993 497.5L418.43749999999994 494.7H411.38749999999993L410.31249999999994 497.5Q410.26249999999993 497.65 410.0875 497.825Q409.91249999999997 498.0 409.53749999999997 498.0ZM412.31249999999994 491.475H417.48749999999995L414.91249999999997 484.275ZM429.1875 498.0Q428.91249999999997 498.0 428.73749999999995 497.825Q428.5625 497.65 428.5625 497.375V481.125Q428.5625 480.85 428.73749999999995 480.675Q428.91249999999997 480.5 429.1875 480.5H431.4625Q431.8375 480.5 432.0125 480.675Q432.1875 480.85 432.23749999999995 480.95L438.91249999999997 491.375V481.125Q438.91249999999997 480.85 439.0875 480.675Q439.2625 480.5 439.5125 480.5H442.0625Q442.3375 480.5 442.5125 480.675Q442.6875 480.85 442.6875 481.125V497.375Q442.6875 497.625 442.5125 497.8125Q442.3375 498.0 442.0625 498.0H439.7625Q439.3875 498.0 439.225 497.8125Q439.0625 497.625 438.98749999999995 497.55L432.3375 487.45V497.375Q432.3375 497.65 432.16249999999997 497.825Q431.98749999999995 498.0 431.7125 498.0ZM462.38749999999993 498.0Q462.11249999999995 498.0 461.93749999999994 497.825Q461.76249999999993 497.65 461.76249999999993 497.375V483.975H457.2124999999999Q456.9624999999999 483.975 456.7874999999999 483.8Q456.61249999999995 483.625 456.61249999999995 483.375V481.125Q456.61249999999995 480.85 456.7874999999999 480.675Q456.9624999999999 480.5 457.2124999999999 480.5H470.31249999999994Q470.5874999999999 480.5 470.76249999999993 480.675Q470.93749999999994 480.85 470.93749999999994 481.125V483.375Q470.93749999999994 483.625 470.76249999999993 483.8Q470.5874999999999 483.975 470.31249999999994 483.975H465.78749999999997V497.375Q465.78749999999997 497.65 465.61249999999995 497.825Q465.43749999999994 498.0 465.16249999999997 498.0ZM483.28749999999997 498.25Q481.01249999999993 498.25 479.36249999999995 497.5Q477.7125 496.75 476.78749999999997 495.2375Q475.86249999999995 493.725 475.78749999999997 491.425Q475.76249999999993 490.35 475.76249999999993 489.2875Q475.76249999999993 488.225 475.78749999999997 487.125Q475.86249999999995 484.875 476.79999999999995 483.3375Q477.73749999999995 481.8 479.4 481.025Q481.06249999999994 480.25 483.28749999999997 480.25Q485.48749999999995 480.25 487.15 481.025Q488.81249999999994 481.8 489.76249999999993 483.3375Q490.7125 484.875 490.76249999999993 487.125Q490.81249999999994 488.225 490.81249999999994 489.2875Q490.81249999999994 490.35 490.76249999999993 491.425Q490.68749999999994 493.725 489.76249999999993 495.2375Q488.8375 496.75 487.1875 497.5Q485.53749999999997 498.25 483.28749999999997 498.25ZM483.28749999999997 495.025Q484.73749999999995 495.025 485.67499999999995 494.1375Q486.61249999999995 493.25 486.66249999999997 491.3Q486.7125 490.2 486.7125 489.23749999999995Q486.7125 488.275 486.66249999999997 487.2Q486.63749999999993 485.9 486.18749999999994 485.075Q485.73749999999995 484.25 484.99999999999994 483.8625Q484.26249999999993 483.475 483.28749999999997 483.475Q482.31249999999994 483.475 481.56249999999994 483.8625Q480.81249999999994 484.25 480.37499999999994 485.075Q479.93749999999994 485.9 479.88749999999993 487.2Q479.86249999999995 488.275 479.86249999999995 489.23749999999995Q479.86249999999995 490.2 479.88749999999993 491.3Q479.9625 493.25 480.88749999999993 494.1375Q481.81249999999994 495.025 483.28749999999997 495.025ZM506.0625 498.0Q505.8125 498.0 505.625 497.825Q505.4375 497.65 505.4375 497.375V481.125Q505.4375 480.85 505.625 480.675Q505.8125 480.5 506.0625 480.5H508.3875Q508.7625 480.5 508.95 480.7Q509.1375 480.9 509.2125 481.0L513.8125 489.475L518.4625 481.0Q518.5124999999999 480.9 518.6999999999999 480.7Q518.8874999999999 480.5 519.2624999999999 480.5H521.5875Q521.8625 480.5 522.0374999999999 480.675Q522.2125 480.85 522.2125 481.125V497.375Q522.2125 497.65 522.0374999999999 497.825Q521.8625 498.0 521.5875 498.0H519.0375Q518.7875 498.0 518.6125 497.825Q518.4375 497.65 518.4375 497.375V487.275L515.2624999999999 493.225Q515.1374999999999 493.45 514.9375 493.625Q514.7375 493.8 514.4125 493.8H513.2375Q512.9125 493.8 512.7125 493.625Q512.5124999999999 493.45 512.3874999999999 493.225L509.2125 487.275V497.375Q509.2125 497.65 509.03749999999997 497.825Q508.86249999999995 498.0 508.61249999999995 498.0ZM529.5375 498.0Q529.2625 498.0 529.0875000000001 497.825Q528.9125 497.65 528.9125 497.375V481.125Q528.9125 480.85 529.0875000000001 480.675Q529.2625 480.5 529.5375 480.5H540.8625Q541.1375 480.5 541.3125 480.675Q541.4875 480.85 541.4875 481.125V483.125Q541.4875 483.375 541.3125 483.55Q541.1375 483.725 540.8625 483.725H532.7625V487.65H540.3125Q540.5875 487.65 540.7625 487.825Q540.9375 488.0 540.9375 488.275V490.125Q540.9375 490.375 540.7625 490.55Q540.5875 490.725 540.3125 490.725H532.7625V494.775H541.0625Q541.3375 494.775 541.5125 494.95Q541.6875 495.125 541.6875 495.4V497.375Q541.6875 497.65 541.5125 497.825Q541.3375 498.0 541.0625 498.0ZM548.2875 498.0Q548.0125 498.0 547.8375000000001 497.825Q547.6625 497.65 547.6625 497.375V481.125Q547.6625 480.85 547.8375000000001 480.675Q548.0125 480.5 548.2875 480.5H559.6125Q559.8875 480.5 560.0625 480.675Q560.2375 480.85 560.2375 481.125V483.125Q560.2375 483.375 560.0625 483.55Q559.8875 483.725 559.6125 483.725H551.5125V487.65H559.0625Q559.3375 487.65 559.5125 487.825Q559.6875 488.0 559.6875 488.275V490.125Q559.6875 490.375 559.5125 490.55Q559.3375 490.725 559.0625 490.725H551.5125V494.775H559.8125Q560.0875 494.775 560.2625 494.95Q560.4375 495.125 560.4375 495.4V497.375Q560.4375 497.65 560.2625 497.825Q560.0875 498.0 559.8125 498.0ZM570.8875 498.0Q570.6125 498.0 570.4375 497.825Q570.2625 497.65 570.2625 497.375V483.975H565.7125Q565.4625 483.975 565.2874999999999 483.8Q565.1125 483.625 565.1125 483.375V481.125Q565.1125 480.85 565.2874999999999 480.675Q565.4625 480.5 565.7125 480.5H578.8125Q579.0875 480.5 579.2625 480.675Q579.4375 480.85 579.4375 481.125V483.375Q579.4375 483.625 579.2625 483.8Q579.0875 483.975 578.8125 483.975H574.2875V497.375Q574.2875 497.65 574.1125 497.825Q573.9375 498.0 573.6625 498.0ZM597.8375 498.0Q597.5624999999999 498.0 597.3874999999999 497.825Q597.2125 497.65 597.2125 497.375V483.975H592.6624999999999Q592.4124999999999 483.975 592.2375 483.8Q592.0624999999999 483.625 592.0624999999999 483.375V481.125Q592.0624999999999 480.85 592.2375 480.675Q592.4124999999999 480.5 592.6624999999999 480.5H605.7624999999999Q606.0374999999999 480.5 606.2124999999999 480.675Q606.3874999999999 480.85 606.3874999999999 481.125V483.375Q606.3874999999999 483.625 606.2124999999999 483.8Q606.0374999999999 483.975 605.7624999999999 483.975H601.2375V497.375Q601.2375 497.65 601.0625 497.825Q600.8874999999999 498.0 600.6125 498.0ZM612.4125 498.0Q612.1375 498.0 611.9625000000001 497.825Q611.7875 497.65 611.7875 497.375V481.125Q611.7875 480.85 611.9625000000001 480.675Q612.1375 480.5 612.4125 480.5H615.1375Q615.4125 480.5 615.5875000000001 480.675Q615.7625 480.85 615.7625 481.125V487.375H622.5375V481.125Q622.5375 480.85 622.7125000000001 480.675Q622.8875 480.5 623.1625 480.5H625.8875Q626.1625 480.5 626.3375000000001 480.675Q626.5125 480.85 626.5125 481.125V497.375Q626.5125 497.65 626.3375000000001 497.825Q626.1625 498.0 625.8875 498.0H623.1625Q622.8875 498.0 622.7125000000001 497.825Q622.5375 497.65 622.5375 497.375V490.925H615.7625V497.375Q615.7625 497.65 615.5875000000001 497.825Q615.4125 498.0 615.1375 498.0ZM633.8375 498.0Q633.5625 498.0 633.3875 497.825Q633.2125 497.65 633.2125 497.375V481.125Q633.2125 480.85 633.3875 480.675Q633.5625 480.5 633.8375 480.5H645.1624999999999Q645.4375 480.5 645.6125 480.675Q645.7874999999999 480.85 645.7874999999999 481.125V483.125Q645.7874999999999 483.375 645.6125 483.55Q645.4375 483.725 645.1624999999999 483.725H637.0625V487.65H644.6125Q644.8874999999999 487.65 645.0625 487.825Q645.2375 488.0 645.2375 488.275V490.125Q645.2375 490.375 645.0625 490.55Q644.8874999999999 490.725 644.6125 490.725H637.0625V494.775H645.3625Q645.6374999999999 494.775 645.8125 494.95Q645.9875 495.125 645.9875 495.4V497.375Q645.9875 497.65 645.8125 497.825Q645.6374999999999 498.0 645.3625 498.0ZM667.5125 498.25Q665.1625 498.25 663.5 497.4625Q661.8375000000001 496.675 660.9250000000001 495.1625Q660.0125 493.65 659.9375 491.5Q659.9125 490.425 659.9125 489.20000000000005Q659.9125 487.975 659.9375 486.875Q660.0125 484.775 660.9250000000001 483.29999999999995Q661.8375000000001 481.825 663.5250000000001 481.0375Q665.2125000000001 480.25 667.5125 480.25Q669.3625000000001 480.25 670.7625 480.725Q672.1625 481.2 673.1125 481.9625Q674.0625 482.725 674.5625 483.625Q675.0625 484.525 675.0875000000001 485.35Q675.0875000000001 485.575 674.9375 485.73749999999995Q674.7875 485.9 674.5375 485.9H671.4375Q671.1875 485.9 671.05 485.79999999999995Q670.9125 485.7 670.8125 485.5Q670.6375 485.05 670.25 484.5875Q669.8625000000001 484.125 669.2125000000001 483.8Q668.5625 483.475 667.5125 483.475Q665.9375 483.475 665.0250000000001 484.3Q664.1125000000001 485.125 664.0375 487.0Q663.9625000000001 489.15 664.0375 491.375Q664.1125000000001 493.325 665.0500000000001 494.17499999999995Q665.9875000000001 495.025 667.5625 495.025Q668.5875000000001 495.025 669.4000000000001 494.6625Q670.2125000000001 494.3 670.6875 493.525Q671.1625 492.75 671.1625 491.55V490.925H668.4375Q668.1875 490.925 668.0125 490.7375Q667.8375000000001 490.55 667.8375000000001 490.3V488.7Q667.8375000000001 488.425 668.0125 488.25Q668.1875 488.075 668.4375 488.075H674.5625Q674.8375000000001 488.075 675.0125 488.25Q675.1875 488.425 675.1875 488.7V491.425Q675.1875 493.575 674.25 495.1Q673.3125 496.625 671.575 497.4375Q669.8375000000001 498.25 667.5125 498.25ZM680.2125000000001 498.0Q679.9875000000001 498.0 679.8375000000001 497.8375Q679.6875 497.675 679.6875 497.475Q679.6875 497.35 679.7125000000001 497.25L685.6625 481.175Q685.7375000000001 480.9 685.9625000000001 480.7Q686.1875 480.5 686.5875000000001 480.5H689.7875Q690.1875 480.5 690.4125 480.7Q690.6375 480.9 690.7125000000001 481.175L696.6625 497.25Q696.6875 497.35 696.6875 497.475Q696.6875 497.675 696.5375 497.8375Q696.3875 498.0 696.1625 498.0H693.5625Q693.1875 498.0 693.0125 497.825Q692.8375000000001 497.65 692.7875 497.5L691.7125000000001 494.7H684.6625L683.5875000000001 497.5Q683.5375 497.65 683.3625 497.825Q683.1875 498.0 682.8125 498.0ZM685.5875000000001 491.475H690.7625L688.1875 484.275ZM702.4625 498.0Q702.2125 498.0 702.025 497.825Q701.8375 497.65 701.8375 497.375V481.125Q701.8375 480.85 702.025 480.675Q702.2125 480.5 702.4625 480.5H704.7874999999999Q705.1624999999999 480.5 705.3499999999999 480.7Q705.5374999999999 480.9 705.6125 481.0L710.2125 489.475L714.8625 481.0Q714.9124999999999 480.9 715.0999999999999 480.7Q715.2874999999999 480.5 715.6624999999999 480.5H717.9875Q718.2624999999999 480.5 718.4375 480.675Q718.6125 480.85 718.6125 481.125V497.375Q718.6125 497.65 718.4375 497.825Q718.2624999999999 498.0 717.9875 498.0H715.4375Q715.1875 498.0 715.0125 497.825Q714.8375 497.65 714.8375 497.375V487.275L711.6624999999999 493.225Q711.5374999999999 493.45 711.3374999999999 493.625Q711.1374999999999 493.8 710.8125 493.8H709.6374999999999Q709.3125 493.8 709.1125 493.625Q708.9124999999999 493.45 708.7874999999999 493.225L705.6125 487.275V497.375Q705.6125 497.65 705.4375 497.825Q705.2624999999999 498.0 705.0124999999999 498.0ZM725.9375 498.0Q725.6625 498.0 725.4875 497.825Q725.3125 497.65 725.3125 497.375V481.125Q725.3125 480.85 725.4875 480.675Q725.6625 480.5 725.9375 480.5H737.2624999999999Q737.5375 480.5 737.7125 480.675Q737.8874999999999 480.85 737.8874999999999 481.125V483.125Q737.8874999999999 483.375 737.7125 483.55Q737.5375 483.725 737.2624999999999 483.725H729.1625V487.65H736.7125Q736.9875 487.65 737.1624999999999 487.825Q737.3375 488.0 737.3375 488.275V490.125Q737.3375 490.375 737.1624999999999 490.55Q736.9875 490.725 736.7125 490.725H729.1625V494.775H737.4625Q737.7375 494.775 737.9124999999999 494.95Q738.0875 495.125 738.0875 495.4V497.375Q738.0875 497.65 737.9124999999999 497.825Q737.7375 498.0 737.4625 498.0ZM750.3625 498.25Q747.9625 498.25 746.3499999999999 497.55Q744.7375 496.85 743.9124999999999 495.725Q743.0875 494.6 743.0375 493.325Q743.0375 493.125 743.1875 492.9625Q743.3375 492.8 743.5625 492.8H746.2375Q746.5625 492.8 746.7375 492.9375Q746.9125 493.075 747.0625 493.275Q747.2375 493.7 747.625 494.1Q748.0124999999999 494.5 748.6875 494.7625Q749.3625 495.025 750.3625 495.025Q751.9875 495.025 752.8 494.5Q753.6125 493.975 753.6125 493.075Q753.6125 492.425 753.175 492.025Q752.7375 491.625 751.8 491.3Q750.8625 490.975 749.3125 490.6Q747.4375 490.2 746.125 489.5625Q744.8125 488.925 744.15 487.9125Q743.4875 486.9 743.4875 485.4Q743.4875 483.9 744.3125 482.73749999999995Q745.1374999999999 481.575 746.6374999999999 480.9125Q748.1374999999999 480.25 750.2125 480.25Q751.8874999999999 480.25 753.175 480.7Q754.4625 481.15 755.325 481.875Q756.1875 482.6 756.6375 483.425Q757.0875 484.25 757.1125 485.025Q757.1125 485.225 756.9625 485.38750000000005Q756.8125 485.55 756.5875 485.55H753.7875Q753.5375 485.55 753.3375 485.45000000000005Q753.1374999999999 485.35 753.0124999999999 485.1Q752.8625 484.45 752.125 483.9625Q751.3874999999999 483.475 750.2125 483.475Q748.9875 483.475 748.275 483.925Q747.5625 484.375 747.5625 485.3Q747.5625 485.9 747.925 486.3125Q748.2875 486.725 749.15 487.0375Q750.0124999999999 487.35 751.4375 487.725Q753.6374999999999 488.175 755.0124999999999 488.8Q756.3874999999999 489.425 757.0374999999999 490.4125Q757.6875 491.4 757.6875 492.9Q757.6875 494.575 756.75 495.775Q755.8125 496.975 754.175 497.6125Q752.5375 498.25 750.3625 498.25Z"/>
<path fill="#5E5870" d="M428.175 546.0Q427.875 546.0 427.68 545.8050000000001Q427.485 545.61 427.485 545.31V525.39Q427.485 525.09 427.68 524.895Q427.875 524.7 428.175 524.7H429.675Q430.005 524.7 430.185 524.895Q430.365 525.09 430.365 525.39V532.38Q431.175 531.36 432.345 530.73Q433.515 530.1 435.315 530.1Q437.265 530.1 438.63 530.9549999999999Q439.995 531.81 440.70000000000005 533.325Q441.40500000000003 534.84 441.40500000000003 536.85V545.31Q441.40500000000003 545.61 441.225 545.8050000000001Q441.045 546.0 440.71500000000003 546.0H439.21500000000003Q438.915 546.0 438.72 545.8050000000001Q438.52500000000003 545.61 438.52500000000003 545.31V537.0Q438.52500000000003 534.9 437.505 533.7149999999999Q436.485 532.53 434.505 532.53Q432.64500000000004 532.53 431.505 533.7149999999999Q430.365 534.9 430.365 537.0V545.31Q430.365 545.61 430.185 545.8050000000001Q430.005 546.0 429.675 546.0ZM451.815 546.0Q450.135 546.0 449.085 545.355Q448.03499999999997 544.71 447.55499999999995 543.5250000000001Q447.075 542.34 447.075 540.72V532.8H444.735Q444.435 532.8 444.24 532.605Q444.045 532.41 444.045 532.11V531.09Q444.045 530.79 444.24 530.595Q444.435 530.4 444.735 530.4H447.075V525.39Q447.075 525.09 447.27 524.895Q447.465 524.7 447.765 524.7H449.175Q449.475 524.7 449.67 524.895Q449.865 525.09 449.865 525.39V530.4H453.585Q453.915 530.4 454.095 530.595Q454.275 530.79 454.275 531.09V532.11Q454.275 532.41 454.095 532.605Q453.915 532.8 453.585 532.8H449.865V540.51Q449.865 541.92 450.345 542.73Q450.825 543.54 452.055 543.54H453.885Q454.185 543.54 454.38 543.7349999999999Q454.575 543.93 454.575 544.23V545.31Q454.575 545.61 454.38 545.8050000000001Q454.185 546.0 453.885 546.0ZM463.545 546.0Q461.865 546.0 460.815 545.355Q459.765 544.71 459.28499999999997 543.5250000000001Q458.805 542.34 458.805 540.72V532.8H456.46500000000003Q456.165 532.8 455.97 532.605Q455.77500000000003 532.41 455.77500000000003 532.11V531.09Q455.77500000000003 530.79 455.97 530.595Q456.165 530.4 456.46500000000003 530.4H458.805V525.39Q458.805 525.09 459.0 524.895Q459.195 524.7 459.495 524.7H460.90500000000003Q461.20500000000004 524.7 461.40000000000003 524.895Q461.595 525.09 461.595 525.39V530.4H465.315Q465.64500000000004 530.4 465.82500000000005 530.595Q466.005 530.79 466.005 531.09V532.11Q466.005 532.41 465.82500000000005 532.605Q465.64500000000004 532.8 465.315 532.8H461.595V540.51Q461.595 541.92 462.07500000000005 542.73Q462.555 543.54 463.785 543.54H465.615Q465.915 543.54 466.11 543.7349999999999Q466.305 543.93 466.305 544.23V545.31Q466.305 545.61 466.11 545.8050000000001Q465.915 546.0 465.615 546.0ZM469.90500000000003 551.7Q469.605 551.7 469.41 551.505Q469.21500000000003 551.31 469.21500000000003 551.01V531.09Q469.21500000000003 530.79 469.41 530.595Q469.605 530.4 469.90500000000003 530.4H471.285Q471.58500000000004 530.4 471.78000000000003 530.595Q471.975 530.79 471.975 531.09V532.41Q472.69500000000005 531.42 473.89500000000004 530.76Q475.095 530.1 476.89500000000004 530.1Q478.57500000000005 530.1 479.76000000000005 530.6700000000001Q480.94500000000005 531.24 481.71000000000004 532.23Q482.475 533.22 482.865 534.48Q483.25500000000005 535.74 483.31500000000005 537.18Q483.345 537.66 483.345 538.2Q483.345 538.74 483.31500000000005 539.22Q483.25500000000005 540.63 482.865 541.905Q482.475 543.18 481.71000000000004 544.155Q480.94500000000005 545.13 479.76000000000005 545.7149999999999Q478.57500000000005 546.3 476.89500000000004 546.3Q475.15500000000003 546.3 473.97 545.655Q472.785 545.01 472.035 544.05V551.01Q472.035 551.31 471.855 551.505Q471.675 551.7 471.37500000000006 551.7ZM476.26500000000004 543.87Q477.82500000000005 543.87 478.71000000000004 543.1949999999999Q479.595 542.52 479.985 541.425Q480.37500000000006 540.33 480.43500000000006 539.07Q480.46500000000003 538.2 480.43500000000006 537.33Q480.37500000000006 536.07 479.985 534.975Q479.595 533.88 478.71000000000004 533.2049999999999Q477.82500000000005 532.53 476.26500000000004 532.53Q474.795 532.53 473.88 533.22Q472.96500000000003 533.91 472.53000000000003 534.9749999999999Q472.095 536.04 472.035 537.15Q472.00500000000005 537.63 472.00500000000005 538.29Q472.00500000000005 538.95 472.035 539.46Q472.06500000000005 540.51 472.53000000000003 541.53Q472.995 542.55 473.925 543.21Q474.855 543.87 476.26500000000004 543.87ZM492.46500000000003 546.3Q490.785 546.3 489.58500000000004 545.88Q488.38500000000005 545.46 487.63500000000005 544.86Q486.88500000000005 544.26 486.51000000000005 543.66Q486.13500000000005 543.06 486.105 542.7Q486.07500000000005 542.37 486.31500000000005 542.19Q486.555 542.01 486.795 542.01H488.14500000000004Q488.295 542.01 488.40000000000003 542.0550000000001Q488.50500000000005 542.1 488.685 542.31Q489.07500000000005 542.73 489.55500000000006 543.1500000000001Q490.035 543.57 490.74 543.84Q491.44500000000005 544.11 492.495 544.11Q494.02500000000003 544.11 495.01500000000004 543.5250000000001Q496.00500000000005 542.94 496.00500000000005 541.8Q496.00500000000005 541.05 495.6 540.5999999999999Q495.19500000000005 540.15 494.16 539.79Q493.125 539.43 491.32500000000005 539.04Q489.52500000000003 538.62 488.475 538.005Q487.425 537.39 486.975 536.535Q486.52500000000003 535.68 486.52500000000003 534.6Q486.52500000000003 533.49 487.18500000000006 532.4549999999999Q487.845 531.42 489.12 530.76Q490.39500000000004 530.1 492.31500000000005 530.1Q493.875 530.1 494.985 530.49Q496.095 530.88 496.81500000000005 531.4649999999999Q497.535 532.05 497.89500000000004 532.62Q498.25500000000005 533.19 498.285 533.58Q498.31500000000005 533.88 498.105 534.075Q497.89500000000004 534.27 497.625 534.27H496.365Q496.15500000000003 534.27 496.02000000000004 534.1800000000001Q495.88500000000005 534.09 495.76500000000004 533.97Q495.46500000000003 533.58 495.06000000000006 533.19Q494.65500000000003 532.8 494.01 532.545Q493.365 532.29 492.31500000000005 532.29Q490.81500000000005 532.29 490.06500000000005 532.92Q489.31500000000005 533.55 489.31500000000005 534.51Q489.31500000000005 535.08 489.64500000000004 535.53Q489.975 535.98 490.90500000000003 536.34Q491.83500000000004 536.7 493.665 537.12Q495.64500000000004 537.51 496.785 538.1700000000001Q497.925 538.83 498.40500000000003 539.7Q498.88500000000005 540.57 498.88500000000005 541.71Q498.88500000000005 542.97 498.1650000000001 544.02Q497.44500000000005 545.07 496.00500000000005 545.685Q494.56500000000005 546.3 492.46500000000003 546.3ZM502.905 535.5Q502.60499999999996 535.5 502.40999999999997 535.3050000000001Q502.215 535.11 502.215 534.81V532.71Q502.215 532.41 502.40999999999997 532.2149999999999Q502.60499999999996 532.02 502.905 532.02H505.065Q505.365 532.02 505.56 532.2149999999999Q505.755 532.41 505.755 532.71V534.81Q505.755 535.11 505.56 535.3050000000001Q505.365 535.5 505.065 535.5ZM502.905 546.0Q502.60499999999996 546.0 502.40999999999997 545.8050000000001Q502.215 545.61 502.215 545.31V543.21Q502.215 542.91 502.40999999999997 542.7149999999999Q502.60499999999996 542.52 502.905 542.52H505.065Q505.365 542.52 505.56 542.7149999999999Q505.755 542.91 505.755 543.21V545.31Q505.755 545.61 505.56 545.8050000000001Q505.365 546.0 505.065 546.0ZM509.20500000000004 548.52Q508.96500000000003 548.52 508.785 548.3399999999999Q508.605 548.16 508.605 547.92Q508.605 547.77 508.69500000000005 547.56L518.955 522.96Q519.0450000000001 522.78 519.21 522.5999999999999Q519.375 522.42 519.735 522.42H520.9050000000001Q521.1450000000001 522.42 521.325 522.5999999999999Q521.505 522.78 521.505 523.02Q521.505 523.14 521.445 523.38L511.15500000000003 547.98Q511.095 548.13 510.9150000000001 548.325Q510.73500000000007 548.52 510.37500000000006 548.52ZM523.665 548.52Q523.425 548.52 523.2449999999999 548.3399999999999Q523.0649999999999 548.16 523.0649999999999 547.92Q523.0649999999999 547.77 523.155 547.56L533.415 522.96Q533.505 522.78 533.67 522.5999999999999Q533.8349999999999 522.42 534.1949999999999 522.42H535.365Q535.605 522.42 535.785 522.5999999999999Q535.9649999999999 522.78 535.9649999999999 523.02Q535.9649999999999 523.14 535.905 523.38L525.615 547.98Q525.555 548.13 525.375 548.325Q525.1949999999999 548.52 524.8349999999999 548.52ZM545.265 546.3Q543.135 546.3 541.5899999999999 545.4749999999999Q540.045 544.65 539.2049999999999 543.105Q538.365 541.56 538.305 539.4Q538.275 538.95 538.275 538.2Q538.275 537.45 538.305 537.0Q538.365 534.84 539.2049999999999 533.2950000000001Q540.045 531.75 541.5899999999999 530.925Q543.135 530.1 545.265 530.1Q547.005 530.1 548.25 530.5799999999999Q549.495 531.06 550.3050000000001 531.81Q551.115 532.56 551.52 533.43Q551.925 534.3 551.955 535.08Q551.985 535.38 551.7750000000001 535.56Q551.565 535.74 551.265 535.74H549.825Q549.525 535.74 549.375 535.605Q549.225 535.47 549.075 535.14Q548.535 533.67 547.605 533.0699999999999Q546.675 532.47 545.295 532.47Q543.495 532.47 542.37 533.58Q541.245 534.69 541.155 537.15Q541.125 538.23 541.155 539.25Q541.245 541.74 542.37 542.835Q543.495 543.93 545.295 543.93Q546.675 543.93 547.605 543.3299999999999Q548.535 542.73 549.075 541.26Q549.225 540.93 549.375 540.78Q549.525 540.63 549.825 540.63H551.265Q551.565 540.63 551.7750000000001 540.825Q551.985 541.02 551.955 541.32Q551.925 541.95 551.685 542.61Q551.445 543.27 550.9200000000001 543.9449999999999Q550.395 544.62 549.615 545.145Q548.835 545.67 547.755 545.9849999999999Q546.675 546.3 545.265 546.3ZM556.2450000000001 546.0Q555.945 546.0 555.75 545.8050000000001Q555.5550000000001 545.61 555.5550000000001 545.31V525.39Q555.5550000000001 525.09 555.75 524.895Q555.945 524.7 556.2450000000001 524.7H557.7450000000001Q558.075 524.7 558.2550000000001 524.895Q558.4350000000001 525.09 558.4350000000001 525.39V532.38Q559.2450000000001 531.36 560.4150000000001 530.73Q561.585 530.1 563.3850000000001 530.1Q565.335 530.1 566.7 530.9549999999999Q568.065 531.81 568.77 533.325Q569.475 534.84 569.475 536.85V545.31Q569.475 545.61 569.2950000000001 545.8050000000001Q569.115 546.0 568.7850000000001 546.0H567.2850000000001Q566.985 546.0 566.79 545.8050000000001Q566.595 545.61 566.595 545.31V537.0Q566.595 534.9 565.575 533.7149999999999Q564.5550000000001 532.53 562.575 532.53Q560.715 532.53 559.575 533.7149999999999Q558.4350000000001 534.9 558.4350000000001 537.0V545.31Q558.4350000000001 545.61 558.2550000000001 545.8050000000001Q558.075 546.0 557.7450000000001 546.0ZM578.1450000000001 546.3Q576.6450000000001 546.3 575.4150000000001 545.7Q574.1850000000001 545.1 573.4350000000001 544.0799999999999Q572.6850000000001 543.06 572.6850000000001 541.77Q572.6850000000001 539.7 574.365 538.47Q576.0450000000001 537.24 578.745 536.85L583.215 536.22V535.35Q583.215 533.91 582.3900000000001 533.0999999999999Q581.565 532.29 579.705 532.29Q578.385 532.29 577.5450000000001 532.8299999999999Q576.705 533.37 576.375 534.21Q576.195 534.66 575.745 534.66H574.3950000000001Q574.065 534.66 573.9000000000001 534.4649999999999Q573.735 534.27 573.735 534.0Q573.735 533.55 574.08 532.89Q574.4250000000001 532.23 575.145 531.6Q575.865 530.97 576.99 530.5350000000001Q578.115 530.1 579.735 530.1Q581.5350000000001 530.1 582.7650000000001 530.565Q583.995 531.03 584.7 531.81Q585.4050000000001 532.59 585.72 533.58Q586.0350000000001 534.57 586.0350000000001 535.59V545.31Q586.0350000000001 545.61 585.8400000000001 545.8050000000001Q585.6450000000001 546.0 585.345 546.0H583.965Q583.635 546.0 583.455 545.8050000000001Q583.2750000000001 545.61 583.2750000000001 545.31V544.02Q582.885 544.56 582.225 545.085Q581.565 545.61 580.575 545.9549999999999Q579.585 546.3 578.1450000000001 546.3ZM578.7750000000001 544.05Q580.005 544.05 581.0250000000001 543.525Q582.0450000000001 543.0 582.6300000000001 541.89Q583.215 540.78 583.215 539.1V538.26L579.735 538.77Q577.605 539.07 576.5250000000001 539.7750000000001Q575.445 540.48 575.445 541.56Q575.445 542.4 575.94 542.9549999999999Q576.4350000000001 543.51 577.2 543.78Q577.965 544.05 578.7750000000001 544.05ZM596.745 546.3Q594.465 546.3 592.935 545.43Q591.405 544.56 590.595 543.015Q589.785 541.47 589.6949999999999 539.49Q589.665 538.98 589.665 538.185Q589.665 537.39 589.6949999999999 536.91Q589.785 534.9 590.6099999999999 533.37Q591.435 531.84 592.9649999999999 530.97Q594.495 530.1 596.745 530.1Q598.995 530.1 600.525 530.97Q602.055 531.84 602.88 533.37Q603.705 534.9 603.795 536.91Q603.825 537.39 603.825 538.185Q603.825 538.98 603.795 539.49Q603.705 541.47 602.895 543.015Q602.085 544.56 600.5550000000001 545.43Q599.025 546.3 596.745 546.3ZM596.745 543.99Q598.605 543.99 599.715 542.8050000000001Q600.825 541.62 600.915 539.34Q600.9449999999999 538.89 600.9449999999999 538.2Q600.9449999999999 537.51 600.915 537.06Q600.825 534.78 599.715 533.595Q598.605 532.41 596.745 532.41Q594.885 532.41 593.76 533.595Q592.635 534.78 592.575 537.06Q592.545 537.51 592.545 538.2Q592.545 538.89 592.575 539.34Q592.635 541.62 593.76 542.8050000000001Q594.885 543.99 596.745 543.99ZM613.665 546.0Q611.985 546.0 610.935 545.355Q609.885 544.71 609.405 543.5250000000001Q608.9250000000001 542.34 608.9250000000001 540.72V532.8H606.585Q606.285 532.8 606.0899999999999 532.605Q605.895 532.41 605.895 532.11V531.09Q605.895 530.79 606.0899999999999 530.595Q606.285 530.4 606.585 530.4H608.9250000000001V525.39Q608.9250000000001 525.09 609.1200000000001 524.895Q609.315 524.7 609.615 524.7H611.025Q611.325 524.7 611.52 524.895Q611.715 525.09 611.715 525.39V530.4H615.4350000000001Q615.765 530.4 615.9449999999999 530.595Q616.125 530.79 616.125 531.09V532.11Q616.125 532.41 615.9449999999999 532.605Q615.765 532.8 615.4350000000001 532.8H611.715V540.51Q611.715 541.92 612.195 542.73Q612.6750000000001 543.54 613.905 543.54H615.735Q616.035 543.54 616.23 543.7349999999999Q616.4250000000001 543.93 616.4250000000001 544.23V545.31Q616.4250000000001 545.61 616.23 545.8050000000001Q616.035 546.0 615.735 546.0ZM619.995 546.0Q619.695 546.0 619.5 545.8050000000001Q619.3050000000001 545.61 619.3050000000001 545.31V531.09Q619.3050000000001 530.79 619.5 530.595Q619.695 530.4 619.995 530.4H621.4350000000001Q621.735 530.4 621.9300000000001 530.595Q622.125 530.79 622.125 531.09V545.31Q622.125 545.61 621.9300000000001 545.8050000000001Q621.735 546.0 621.4350000000001 546.0ZM619.755 527.49Q619.455 527.49 619.26 527.2950000000001Q619.065 527.1 619.065 526.8V525.18Q619.065 524.88 619.26 524.6700000000001Q619.455 524.46 619.755 524.46H621.645Q621.945 524.46 622.155 524.6700000000001Q622.365 524.88 622.365 525.18V526.8Q622.365 527.1 622.155 527.2950000000001Q621.945 527.49 621.645 527.49ZM632.865 546.3Q630.735 546.3 629.19 545.4749999999999Q627.645 544.65 626.8050000000001 543.105Q625.965 541.56 625.905 539.4Q625.875 538.95 625.875 538.2Q625.875 537.45 625.905 537.0Q625.965 534.84 626.8050000000001 533.2950000000001Q627.645 531.75 629.19 530.925Q630.735 530.1 632.865 530.1Q634.605 530.1 635.85 530.5799999999999Q637.095 531.06 637.905 531.81Q638.715 532.56 639.12 533.43Q639.525 534.3 639.5550000000001 535.08Q639.585 535.38 639.375 535.56Q639.1650000000001 535.74 638.865 535.74H637.4250000000001Q637.125 535.74 636.975 535.605Q636.825 535.47 636.6750000000001 535.14Q636.135 533.67 635.2049999999999 533.0699999999999Q634.275 532.47 632.895 532.47Q631.095 532.47 629.97 533.58Q628.845 534.69 628.755 537.15Q628.725 538.23 628.755 539.25Q628.845 541.74 629.97 542.835Q631.095 543.93 632.895 543.93Q634.275 543.93 635.2049999999999 543.3299999999999Q636.135 542.73 636.6750000000001 541.26Q636.825 540.93 636.975 540.78Q637.125 540.63 637.4250000000001 540.63H638.865Q639.1650000000001 540.63 639.375 540.825Q639.585 541.02 639.5550000000001 541.32Q639.525 541.95 639.2850000000001 542.61Q639.0450000000001 543.27 638.52 543.9449999999999Q637.995 544.62 637.215 545.145Q636.4350000000001 545.67 635.355 545.9849999999999Q634.275 546.3 632.865 546.3ZM643.845 546.0Q643.545 546.0 643.3499999999999 545.8050000000001Q643.155 545.61 643.155 545.31V525.39Q643.155 525.09 643.3499999999999 524.895Q643.545 524.7 643.845 524.7H645.255Q645.555 524.7 645.75 524.895Q645.9449999999999 525.09 645.9449999999999 525.39V535.83L651.855 530.91Q652.2149999999999 530.61 652.41 530.505Q652.605 530.4 653.055 530.4H654.645Q654.915 530.4 655.095 530.5799999999999Q655.275 530.76 655.275 531.03Q655.275 531.15 655.2 531.3Q655.125 531.45 654.915 531.6L647.985 537.36L655.665 544.83Q656.025 545.13 656.025 545.37Q656.025 545.64 655.845 545.8199999999999Q655.665 546.0 655.395 546.0H653.8349999999999Q653.385 546.0 653.175 545.895Q652.9649999999999 545.79 652.635 545.49L645.9449999999999 539.1V545.31Q645.9449999999999 545.61 645.75 545.8050000000001Q645.555 546.0 645.255 546.0ZM659.085 546.0Q658.785 546.0 658.5899999999999 545.8050000000001Q658.395 545.61 658.395 545.31V543.15Q658.395 542.85 658.5899999999999 542.655Q658.785 542.46 659.085 542.46H661.245Q661.545 542.46 661.755 542.655Q661.965 542.85 661.965 543.15V545.31Q661.965 545.61 661.755 545.8050000000001Q661.545 546.0 661.245 546.0ZM672.555 552.6Q670.515 552.6 669.21 552.06Q667.905 551.52 667.17 550.755Q666.435 549.99 666.1199999999999 549.225Q665.805 548.46 665.775 548.01Q665.7449999999999 547.71 665.9699999999999 547.5Q666.1949999999999 547.29 666.4649999999999 547.29H667.905Q668.175 547.29 668.355 547.41Q668.535 547.53 668.655 547.92Q668.8349999999999 548.37 669.1949999999999 548.925Q669.555 549.48 670.305 549.885Q671.055 550.29 672.405 550.29Q673.8149999999999 550.29 674.7749999999999 549.9Q675.7349999999999 549.51 676.2299999999999 548.5799999999999Q676.7249999999999 547.65 676.7249999999999 546.0V543.96Q676.0049999999999 544.89 674.8349999999999 545.505Q673.665 546.12 671.895 546.12Q670.2149999999999 546.12 669.0149999999999 545.5350000000001Q667.8149999999999 544.95 667.05 543.945Q666.285 542.94 665.91 541.6500000000001Q665.535 540.36 665.4749999999999 538.95Q665.4449999999999 538.11 665.4749999999999 537.3Q665.535 535.89 665.91 534.5999999999999Q666.285 533.31 667.05 532.29Q667.8149999999999 531.27 669.0149999999999 530.685Q670.2149999999999 530.1 671.895 530.1Q673.6949999999999 530.1 674.8799999999999 530.76Q676.0649999999999 531.42 676.8149999999999 532.41V531.12Q676.8149999999999 530.82 677.01 530.61Q677.2049999999999 530.4 677.5049999999999 530.4H678.885Q679.185 530.4 679.395 530.61Q679.6049999999999 530.82 679.6049999999999 531.12V545.67Q679.6049999999999 547.68 678.9299999999998 549.24Q678.2549999999999 550.8 676.7099999999999 551.7Q675.165 552.6 672.555 552.6ZM672.4949999999999 543.72Q673.9949999999999 543.72 674.9099999999999 543.03Q675.8249999999999 542.34 676.26 541.29Q676.6949999999999 540.24 676.7249999999999 539.16Q676.7549999999999 538.74 676.7549999999999 538.125Q676.7549999999999 537.51 676.7249999999999 537.09Q676.6949999999999 536.01 676.26 534.96Q675.8249999999999 533.91 674.9099999999999 533.22Q673.9949999999999 532.53 672.4949999999999 532.53Q670.9949999999999 532.53 670.0949999999999 533.2049999999999Q669.1949999999999 533.88 668.805 534.975Q668.415 536.07 668.3549999999999 537.33Q668.3249999999999 538.11 668.3549999999999 538.92Q668.415 540.18 668.805 541.275Q669.1949999999999 542.37 670.0949999999999 543.0450000000001Q670.9949999999999 543.72 672.4949999999999 543.72ZM690.465 552.6Q688.4250000000001 552.6 687.1200000000001 552.06Q685.815 551.52 685.08 550.755Q684.345 549.99 684.03 549.225Q683.715 548.46 683.6850000000001 548.01Q683.655 547.71 683.88 547.5Q684.105 547.29 684.375 547.29H685.815Q686.085 547.29 686.2650000000001 547.41Q686.445 547.53 686.565 547.92Q686.745 548.37 687.105 548.925Q687.465 549.48 688.215 549.885Q688.965 550.29 690.315 550.29Q691.725 550.29 692.685 549.9Q693.645 549.51 694.14 548.5799999999999Q694.635 547.65 694.635 546.0V543.96Q693.915 544.89 692.745 545.505Q691.575 546.12 689.8050000000001 546.12Q688.125 546.12 686.925 545.5350000000001Q685.725 544.95 684.96 543.945Q684.195 542.94 683.82 541.6500000000001Q683.445 540.36 683.385 538.95Q683.355 538.11 683.385 537.3Q683.445 535.89 683.82 534.5999999999999Q684.195 533.31 684.96 532.29Q685.725 531.27 686.925 530.685Q688.125 530.1 689.8050000000001 530.1Q691.605 530.1 692.79 530.76Q693.975 531.42 694.725 532.41V531.12Q694.725 530.82 694.9200000000001 530.61Q695.115 530.4 695.415 530.4H696.7950000000001Q697.095 530.4 697.3050000000001 530.61Q697.515 530.82 697.515 531.12V545.67Q697.515 547.68 696.8399999999999 549.24Q696.165 550.8 694.62 551.7Q693.075 552.6 690.465 552.6ZM690.405 543.72Q691.905 543.72 692.8199999999999 543.03Q693.735 542.34 694.1700000000001 541.29Q694.605 540.24 694.635 539.16Q694.665 538.74 694.665 538.125Q694.665 537.51 694.635 537.09Q694.605 536.01 694.1700000000001 534.96Q693.735 533.91 692.8199999999999 533.22Q691.905 532.53 690.405 532.53Q688.905 532.53 688.005 533.2049999999999Q687.105 533.88 686.715 534.975Q686.325 536.07 686.265 537.33Q686.235 538.11 686.265 538.92Q686.325 540.18 686.715 541.275Q687.105 542.37 688.005 543.0450000000001Q688.905 543.72 690.405 543.72Z"/>
</svg>
